# xmcd CD database file
#
# Track frame offsets:
#	150
#	13278
#	27159
#	36312
#	49816
#	57770
#	81698
#	98428
#	111631
#	129224
#	141752
#	161308
#
# Disc length: 2310 seconds
#
# Revision: 0
# Processed by: cddbd v1.5.2PL0 Copyright (c) Steve Scherf et al.
# Submitted via: jetAudio 7
#
DISCID=9e09040c
DTITLE=Tom Ball And Kenny Sultan - Confusion
DYEAR=1900
DGENRE=Blues
TTITLE0=Confusion
TTITLE1=Tater Pie
TTITLE2=Buck Dance
TTITLE3=Greyhound Blues
TTITLE4=My Blue Belle
TTITLE5=Five Long Years
TTITLE6=My Gal
TTITLE7=Wing And A Prayer
TTITLE8=Changed The Lock
TTITLE9=Dallas Rag/Harlem Rag
TTITLE10=Outskirts Of Town
TTITLE11=Can't Remember
EXTD=
EXTT0=
EXTT1=
EXTT2=
EXTT3=
EXTT4=
EXTT5=
EXTT6=
EXTT7=
EXTT8=
EXTT9=
EXTT10=
EXTT11=
PLAYORDER=
